<svg xmlns="http://www.w3.org/2000/svg" version="1.1" xmlns:xlink="http://www.w3.org/1999/xlink" xmlns:svgjs="http://svgjs.com/svgjs" width="43pt" height="44pt"><svg width="43pt" height="44pt" viewBox="0 0 43 44" xmlns="http://www.w3.org/2000/svg"><g id="SvgjsG1000" stroke-linecap="round" fill-rule="evenodd" fill="#000000"><path d="M 23.535 31.594 L 23.535 12.869 A 28.07 28.07 0 0 1 23.802 8.829 Q 24.694 2.722 28.564 0.881 A 8.654 8.654 0 0 1 30.615 0.222 Q 31.563 0.037 32.649 0.008 A 15.282 15.282 0 0 1 33.057 0.002 A 10.118 10.118 0 0 1 37.072 0.739 Q 41.42 2.606 42.019 9.202 A 24.674 24.674 0 0 1 42.114 11.428 L 42.114 17.336 L 35.791 17.336 L 35.791 11.843 Q 35.791 8.523 35.23 7.095 Q 34.766 5.916 33.572 5.71 A 3.172 3.172 0 0 0 33.032 5.666 A 2.71 2.71 0 0 0 32.077 5.826 Q 31.191 6.157 30.762 7.18 A 6.216 6.216 0 0 0 30.441 8.221 Q 30.127 9.622 30.127 11.819 L 30.127 31.887 Q 30.127 34.581 30.495 36.081 A 5.447 5.447 0 0 0 30.737 36.843 Q 31.348 38.332 32.959 38.332 A 2.628 2.628 0 0 0 33.889 38.177 Q 34.595 37.912 35.001 37.194 A 3.157 3.157 0 0 0 35.181 36.819 A 6.077 6.077 0 0 0 35.474 35.819 Q 35.704 34.738 35.767 33.117 A 33.591 33.591 0 0 0 35.791 31.814 L 35.791 25.662 L 42.212 25.662 L 42.212 31.741 Q 42.212 37.562 40.269 40.555 A 7.743 7.743 0 0 1 39.99 40.957 Q 37.84 43.851 33.312 43.945 A 14.772 14.772 0 0 1 33.008 43.948 Q 28.247 43.948 25.891 40.762 A 10.617 10.617 0 0 1 24.333 37.61 Q 23.884 36.184 23.688 34.459 A 25.372 25.372 0 0 1 23.535 31.594 Z M 0 33.962 L 0 26.296 L 6.323 26.296 L 6.323 33.645 A 17.121 17.121 0 0 0 6.374 35.025 Q 6.547 37.15 7.304 37.857 A 1.39 1.39 0 0 0 7.471 37.991 A 1.978 1.978 0 0 0 8.176 38.278 A 2.789 2.789 0 0 0 8.74 38.332 Q 10.213 38.332 10.695 37.139 A 2.45 2.45 0 0 0 10.706 37.112 A 5.131 5.131 0 0 0 10.936 36.313 Q 11.182 35.149 11.182 33.254 L 11.182 0.491 L 17.725 0.491 L 17.725 32.937 A 19.273 19.273 0 0 1 17.487 36.069 Q 16.982 39.129 15.405 41.079 A 7.554 7.554 0 0 1 10.327 43.855 A 11.003 11.003 0 0 1 8.875 43.948 A 11.179 11.179 0 0 1 6.201 43.646 A 7.552 7.552 0 0 1 2.332 41.396 Q 0 38.845 0 33.962 Z" vector-effect="non-scaling-stroke"></path></g></svg><style>@media (prefers-color-scheme: light) { :root { filter: none; } }
@media (prefers-color-scheme: dark) { :root { filter: invert(100%); } }
</style></svg>